<svg width="16" height="13" viewBox="0 0 16 13" fill="none" xmlns="http://www.w3.org/2000/svg">
<path id="Vector" d="M8.90642 0.555932C9.12074 0.341676 9.41138 0.221313 9.71443 0.221313C10.0175 0.221313 10.3081 0.341676 10.5224 0.555932L15.6654 5.69887C15.8796 5.91319 16 6.20383 16 6.50688C16 6.80993 15.8796 7.10057 15.6654 7.31489L10.5224 12.4578C10.3069 12.666 10.0182 12.7812 9.71855 12.7786C9.41889 12.776 9.13224 12.6558 8.92034 12.4439C8.70845 12.232 8.58825 11.9454 8.58565 11.6457C8.58304 11.346 8.69824 11.0574 8.90642 10.8418L12.0002 7.64975H1.14287C0.839765 7.64975 0.549071 7.52934 0.33474 7.31501C0.12041 7.10068 0 6.80999 0 6.50688C0 6.20377 0.12041 5.91308 0.33474 5.69875C0.549071 5.48441 0.839765 5.36401 1.14287 5.36401H12.0002L8.90642 2.17196C8.69217 1.95764 8.5718 1.66699 8.5718 1.36394C8.5718 1.06089 8.69217 0.770252 8.90642 0.555932Z" fill="white"/>
</svg>
