<svg width="16" height="13" viewBox="0 0 16 13" fill="none" xmlns="http://www.w3.org/2000/svg">
<path d="M8.90642 0.334618C9.12074 0.120362 9.41138 0 9.71443 0C10.0175 0 10.3081 0.120362 10.5224 0.334618L15.6654 5.47755C15.8796 5.69187 16 5.98252 16 6.28557C16 6.58862 15.8796 6.87926 15.6654 7.09358L10.5224 12.2365C10.3069 12.4447 10.0182 12.5599 9.71855 12.5573C9.41889 12.5547 9.13224 12.4345 8.92034 12.2226C8.70845 12.0107 8.58825 11.724 8.58565 11.4244C8.58304 11.1247 8.69824 10.836 8.90642 10.6205L12.0002 7.42844H1.14287C0.839765 7.42844 0.549071 7.30803 0.33474 7.0937C0.12041 6.87937 0 6.58868 0 6.28557C0 5.98246 0.12041 5.69176 0.33474 5.47743C0.549071 5.2631 0.839765 5.14269 1.14287 5.14269H12.0002L8.90642 1.95064C8.69217 1.73632 8.5718 1.44568 8.5718 1.14263C8.5718 0.839581 8.69217 0.548939 8.90642 0.334618Z" fill="#4671C6"/>
</svg>
