<svg width="40" height="40" viewBox="0 0 40 40" fill="none" xmlns="http://www.w3.org/2000/svg">
<g id="pepicons-pop:credit-card">
<g id="Group">
<path id="Vector" fill-rule="evenodd" clip-rule="evenodd" d="M32 7H8C6.4087 7 4.88258 7.63214 3.75736 8.75736C2.63214 9.88258 2 11.4087 2 13V27C2 28.5913 2.63214 30.1174 3.75736 31.2426C4.88258 32.3679 6.4087 33 8 33H32C33.5913 33 35.1174 32.3679 36.2426 31.2426C37.3679 30.1174 38 28.5913 38 27V13C38 11.4087 37.3679 9.88258 36.2426 8.75736C35.1174 7.63214 33.5913 7 32 7ZM6 13C6 12.4696 6.21071 11.9609 6.58579 11.5858C6.96086 11.2107 7.46957 11 8 11H32C32.5304 11 33.0391 11.2107 33.4142 11.5858C33.7893 11.9609 34 12.4696 34 13V27C34 27.5304 33.7893 28.0391 33.4142 28.4142C33.0391 28.7893 32.5304 29 32 29H8C7.46957 29 6.96086 28.7893 6.58579 28.4142C6.21071 28.0391 6 27.5304 6 27V13Z" fill="#4671C6"/>
<path id="Vector_2" d="M5 13H35C35.2652 13 35.5196 13.1054 35.7071 13.2929C35.8946 13.4804 36 13.7348 36 14V16C36 16.2652 35.8946 16.5196 35.7071 16.7071C35.5196 16.8946 35.2652 17 35 17H5C4.73478 17 4.48043 16.8946 4.29289 16.7071C4.10536 16.5196 4 16.2652 4 16V14C4 13.7348 4.10536 13.4804 4.29289 13.2929C4.48043 13.1054 4.73478 13 5 13Z" fill="#4671C6"/>
<path id="Vector_3" fill-rule="evenodd" clip-rule="evenodd" d="M12 19H10C9.46957 19 8.96086 19.2107 8.58579 19.5858C8.21071 19.9609 8 20.4696 8 21V23C8 23.5304 8.21071 24.0391 8.58579 24.4142C8.96086 24.7893 9.46957 25 10 25H12C12.5304 25 13.0391 24.7893 13.4142 24.4142C13.7893 24.0391 14 23.5304 14 23V21C14 20.4696 13.7893 19.9609 13.4142 19.5858C13.0391 19.2107 12.5304 19 12 19ZM10 23V21H12V23H10Z" fill="#4671C6"/>
</g>
</g>
</svg>
