<svg width="40" height="40" viewBox="0 0 40 40" fill="none" xmlns="http://www.w3.org/2000/svg">
<g id="Delivey Icon">
<path id="Vector" d="M5 20H20V22.5H5V20ZM2.5 13.75H15V16.25H2.5V13.75Z" fill="#4671C6"/>
<path id="Vector_2" d="M37.3987 20.7575L33.6487 12.0075C33.5525 11.7826 33.3923 11.5909 33.1881 11.4562C32.9839 11.3216 32.7446 11.2499 32.5 11.25H28.75V8.75C28.75 8.41848 28.6183 8.10054 28.3839 7.86612C28.1495 7.6317 27.8315 7.5 27.5 7.5H7.49999V10H26.25V25.695C25.6804 26.0257 25.1819 26.466 24.7833 26.9903C24.3847 27.5146 24.0938 28.1127 23.9275 28.75H16.0725C15.7682 27.5717 15.0447 26.5448 14.0375 25.8617C13.0303 25.1787 11.8085 24.8865 10.6012 25.0399C9.39397 25.1932 8.28407 25.7816 7.47959 26.6947C6.6751 27.6078 6.23126 28.783 6.23126 30C6.23126 31.217 6.6751 32.3922 7.47959 33.3053C8.28407 34.2184 9.39397 34.8068 10.6012 34.9601C11.8085 35.1135 13.0303 34.8213 14.0375 34.1383C15.0447 33.4552 15.7682 32.4283 16.0725 31.25H23.9275C24.1994 32.3228 24.8213 33.2743 25.6947 33.954C26.5681 34.6336 27.6433 35.0027 28.75 35.0027C29.8567 35.0027 30.9318 34.6336 31.8053 33.954C32.6787 33.2743 33.3006 32.3228 33.5725 31.25H36.25C36.5815 31.25 36.8995 31.1183 37.1339 30.8839C37.3683 30.6495 37.5 30.3315 37.5 30V21.25C37.5001 21.0807 37.4656 20.9131 37.3987 20.7575ZM11.25 32.5C10.7555 32.5 10.2722 32.3534 9.86107 32.0787C9.44994 31.804 9.12951 31.4135 8.94029 30.9567C8.75107 30.4999 8.70156 29.9972 8.79803 29.5123C8.89449 29.0273 9.13259 28.5819 9.48222 28.2322C9.83186 27.8826 10.2773 27.6445 10.7623 27.548C11.2472 27.4516 11.7499 27.5011 12.2067 27.6903C12.6635 27.8795 13.054 28.2 13.3287 28.6111C13.6034 29.0222 13.75 29.5055 13.75 30C13.7493 30.6628 13.4857 31.2983 13.017 31.767C12.5483 32.2357 11.9128 32.4993 11.25 32.5ZM28.75 13.75H31.675L34.355 20H28.75V13.75ZM28.75 32.5C28.2555 32.5 27.7722 32.3534 27.3611 32.0787C26.9499 31.804 26.6295 31.4135 26.4403 30.9567C26.2511 30.4999 26.2016 29.9972 26.298 29.5123C26.3945 29.0273 26.6326 28.5819 26.9822 28.2322C27.3319 27.8826 27.7773 27.6445 28.2623 27.548C28.7472 27.4516 29.2499 27.5011 29.7067 27.6903C30.1635 27.8795 30.554 28.2 30.8287 28.6111C31.1034 29.0222 31.25 29.5055 31.25 30C31.2493 30.6628 30.9857 31.2983 30.517 31.767C30.0483 32.2357 29.4128 32.4993 28.75 32.5ZM35 28.75H33.5725C33.2971 27.6793 32.6743 26.7302 31.8015 26.0516C30.9288 25.3729 29.8555 25.0031 28.75 25V22.5H35V28.75Z" fill="#4671C6"/>
</g>
</svg>
