<svg width="40" height="40" viewBox="0 0 40 40" fill="none" xmlns="http://www.w3.org/2000/svg">
<g id="mingcute:service-fill" clip-path="url(#clip0_6_404)">
<g id="Group">
<path id="Vector" d="M8.33331 15C8.33331 11.9058 9.56248 8.93832 11.7504 6.7504C13.9383 4.56248 16.9058 3.33331 20 3.33331C23.0942 3.33331 26.0616 4.56248 28.2496 6.7504C30.4375 8.93832 31.6666 11.9058 31.6666 15V16.725C34.4933 17.13 36.6666 19.5616 36.6666 22.5V22.9166C36.6666 25.875 34.115 28.4683 31.1133 28.33C29.88 31.8633 26.7433 34.245 23.3583 34.8483C22.575 35.135 21.6483 35 20.8333 35C20.1703 35 19.5344 34.7366 19.0655 34.2677C18.5967 33.7989 18.3333 33.163 18.3333 32.5C18.3333 31.8369 18.5967 31.2011 19.0655 30.7322C19.5344 30.2634 20.1703 30 20.8333 30C22.155 30 23.6183 29.8083 24.5116 31.015C26.6716 29.9866 28.3333 27.815 28.3333 25V15C28.3333 12.7898 27.4553 10.6702 25.8925 9.10742C24.3297 7.54462 22.2101 6.66665 20 6.66665C17.7898 6.66665 15.6702 7.54462 14.1074 9.10742C12.5446 10.6702 11.6666 12.7898 11.6666 15V25.4166C11.6666 26.1902 11.3594 26.9321 10.8124 27.479C10.2654 28.026 9.52353 28.3333 8.74998 28.3333C7.31339 28.3333 5.93564 27.7626 4.91982 26.7468C3.904 25.731 3.33331 24.3532 3.33331 22.9166V22.5C3.33295 21.097 3.83825 19.7409 4.75657 18.6802C5.6749 17.6196 6.94473 16.9254 8.33331 16.725V15Z" fill="#4671C6"/>
</g>
</g>
<defs>
<clipPath id="clip0_6_404">
<rect width="40" height="40" fill="white"/>
</clipPath>
</defs>
</svg>
