<svg width="24" height="24" viewBox="0 0 24 24" fill="none" xmlns="http://www.w3.org/2000/svg">
<path d="M13.1993 0.334443C14.0507 0.331176 14.902 0.339733 15.7531 0.36011L15.9795 0.368277C16.2408 0.37761 16.4986 0.389277 16.8101 0.403277C18.0515 0.46161 18.8985 0.65761 19.6416 0.945777C20.4116 1.24211 21.0603 1.64344 21.709 2.29211C22.3021 2.87498 22.7611 3.58005 23.0541 4.35828C23.3423 5.10144 23.5383 5.94961 23.5966 7.19094C23.6106 7.50128 23.6223 7.76028 23.6316 8.02161L23.6386 8.24794C23.6594 9.09867 23.6683 9.94964 23.6655 10.8006L23.6666 11.6709V13.1993C23.6695 14.0506 23.6606 14.902 23.6398 15.7531L23.6328 15.9794C23.6235 16.2408 23.6118 16.4986 23.5978 16.8101C23.5395 18.0514 23.3411 18.8984 23.0541 19.6416C22.7621 20.4207 22.3029 21.1263 21.709 21.7089C21.1256 22.302 20.4202 22.761 19.6416 23.0541C18.8985 23.3423 18.0515 23.5383 16.8101 23.5966C16.4986 23.6106 16.2408 23.6223 15.9795 23.6316L15.7531 23.6386C14.902 23.6594 14.0507 23.6683 13.1993 23.6654L12.329 23.6666H10.8018C9.95045 23.6695 9.09909 23.6605 8.24798 23.6398L8.02165 23.6328C7.74469 23.6227 7.4678 23.6111 7.19098 23.5978C5.94965 23.5394 5.10265 23.3411 4.35831 23.0541C3.57978 22.7617 2.87459 22.3026 2.29215 21.7089C1.69837 21.1259 1.23891 20.4204 0.945815 19.6416C0.657648 18.8984 0.461648 18.0514 0.403315 16.8101C0.390321 16.5333 0.378655 16.2564 0.368315 15.9794L0.362482 15.7531C0.340972 14.902 0.331249 14.0507 0.333315 13.1993V10.8006C0.330059 9.94965 0.338615 9.09867 0.358982 8.24794L0.367148 8.02161C0.376481 7.76028 0.388148 7.50128 0.402148 7.19094C0.460481 5.94844 0.656481 5.10261 0.944648 4.35828C1.23792 3.57967 1.69827 2.8748 2.29331 2.29328C2.87536 1.69915 3.5801 1.23928 4.35831 0.945777C5.10265 0.65761 5.94848 0.46161 7.19098 0.403277L8.02165 0.368277L8.24798 0.362443C9.09869 0.340945 9.94966 0.331222 10.8006 0.333277L13.1993 0.334443ZM12 6.16778C11.2271 6.15685 10.4597 6.29964 9.74245 6.58786C9.02521 6.87607 8.3724 7.30397 7.82197 7.84667C7.27153 8.38938 6.83445 9.03607 6.53612 9.74917C6.23778 10.4623 6.08415 11.2275 6.08415 12.0005C6.08415 12.7735 6.23778 13.5388 6.53612 14.2519C6.83445 14.965 7.27153 15.6117 7.82197 16.1544C8.3724 16.6971 9.02521 17.125 9.74245 17.4132C10.4597 17.7014 11.2271 17.8442 12 17.8333C13.5471 17.8333 15.0308 17.2187 16.1248 16.1247C17.2187 15.0308 17.8333 13.547 17.8333 11.9999C17.8333 10.4528 17.2187 8.96912 16.1248 7.87515C15.0308 6.78119 13.5471 6.16778 12 6.16778ZM12 8.50111C12.4649 8.49254 12.9269 8.57671 13.3589 8.74869C13.7909 8.92066 14.1844 9.17701 14.5162 9.50275C14.8481 9.82848 15.1117 10.2171 15.2917 10.6458C15.4716 11.0746 15.5644 11.5349 15.5645 11.9999C15.5645 12.4649 15.472 12.9253 15.2921 13.3541C15.1123 13.7829 14.8488 14.1716 14.5171 14.4975C14.1853 14.8233 13.792 15.0798 13.36 15.2519C12.928 15.424 12.4661 15.5084 12.0011 15.4999C11.0729 15.4999 10.1826 15.1312 9.52627 14.4748C8.8699 13.8184 8.50115 12.9282 8.50115 11.9999C8.50115 11.0717 8.8699 10.1814 9.52627 9.52507C10.1826 8.86869 11.0729 8.49994 12.0011 8.49994L12 8.50111ZM18.125 4.41778C17.7486 4.43284 17.3927 4.59295 17.1317 4.86458C16.8707 5.1362 16.725 5.49827 16.725 5.87494C16.725 6.25162 16.8707 6.61369 17.1317 6.88531C17.3927 7.15693 17.7486 7.31705 18.125 7.33211C18.5118 7.33211 18.8827 7.17847 19.1562 6.90497C19.4297 6.63148 19.5833 6.26055 19.5833 5.87378C19.5833 5.487 19.4297 5.11607 19.1562 4.84258C18.8827 4.56909 18.5118 4.41544 18.125 4.41544V4.41778Z" fill="#4671C6"/>
</svg>
