<svg width="13" height="14" viewBox="0 0 13 14" fill="none" xmlns="http://www.w3.org/2000/svg">
<path id="Logo Nintendo" d="M5.025 12.25H3.2C2.61875 12.25 2.0625 12 1.65 11.6C1.25 11.1875 1 10.6313 1 10.05V3.95C1 3.36875 1.25 2.8125 1.65 2.4C2.0625 2 2.61875 1.7625 3.2 1.7625H5.025V12.25ZM3.2 0.75C2.35131 0.75 1.53737 1.08714 0.937258 1.68726C0.337142 2.28737 0 3.10131 0 3.95V10.05C0 11.8188 1.43125 13.25 3.2 13.25H6.03125V0.75H3.2ZM1.94375 4.5C1.94375 5.15 2.46875 5.675 3.125 5.675C3.76875 5.675 4.29375 5.15 4.29375 4.5C4.29375 3.85 3.76875 3.325 3.125 3.325C2.46875 3.325 1.94375 3.85 1.94375 4.5ZM9.75625 6.375C10.45 6.375 11.0125 6.93125 11.0125 7.625C11.0125 8.325 10.45 8.875 9.75625 8.875C9.0625 8.875 8.4875 8.325 8.4875 7.625C8.4875 6.93125 9.0625 6.375 9.75625 6.375ZM9.3 13.25C10.1487 13.25 10.9626 12.9129 11.5627 12.3127C12.1629 11.7126 12.5 10.8987 12.5 10.05V3.95C12.5 2.18125 11.0688 0.75 9.3 0.75H7.28125V13.25H9.3Z" fill="#717171"/>
</svg>
