<svg width="52" height="12" viewBox="0 0 52 12" fill="none" xmlns="http://www.w3.org/2000/svg">
<g id="7048152_playstation_ps5_logo_playstation 5_icon 1" clip-path="url(#clip0_22_12)">
<g id="layer1">
<path id="rect840" fill-rule="evenodd" clip-rule="evenodd" d="M35.6597 2.3623C34.598 2.36231 33.7374 3.24264 33.7374 4.32858V7.6837C33.7374 8.2976 33.2508 8.79525 32.6507 8.79523H28.9504V9.62825H33.3513C34.4129 9.62824 35.2736 8.74789 35.2736 7.66192V4.30681C35.2736 3.69292 35.7601 3.19526 36.3603 3.19528L40.1295 3.19528V2.3623H35.6597Z" fill="#7B7B7B"/>
<path id="path916" fill-rule="evenodd" clip-rule="evenodd" d="M19.0757 2.3623V3.19528H26.805C27.421 3.19528 27.9204 3.70609 27.9204 4.33621C27.9204 4.96633 27.421 5.47714 26.805 5.47714H20.998C19.9363 5.47715 19.0757 6.35748 19.0757 7.44342V9.62825H20.6119V7.4217C20.6119 6.8078 21.0984 6.31015 21.6986 6.31017H27.5268C28.5926 6.31016 29.4566 5.42638 29.4566 4.33621C29.4566 3.24606 28.5926 2.36231 27.5268 2.3623H19.0757Z" fill="#7B7B7B"/>
<path id="path929" fill-rule="evenodd" clip-rule="evenodd" d="M41.6098 2.3623V5.07543C41.6098 5.75735 42.1502 6.31016 42.8169 6.31017H49.249C49.9199 6.31016 50.4637 6.86645 50.4638 7.55267C50.4638 8.23892 49.9199 8.79523 49.249 8.79523H41.6098V9.62825H49.9709C51.0915 9.62825 52 8.699 52 7.55272C52 6.40642 51.0915 5.47715 49.9709 5.47714H43.6312C43.3633 5.47714 43.1461 5.25497 43.1461 4.9809V3.19528H51.7216V2.3623H41.6098Z" fill="#7B7B7B"/>
<path id="path72" d="M5.68533 0V11.1955L8.1623 12V2.60907C8.1623 2.17023 8.35406 1.87511 8.66335 1.97816C9.06763 2.0925 9.14628 2.49744 9.14628 2.93718V6.68741C10.691 7.44983 11.9056 6.68694 11.9056 4.67445C11.9056 2.60907 11.1947 1.69298 9.09768 0.954957C8.27232 0.67204 6.73913 0.198855 5.68533 0Z" fill="#7B7B7B"/>
<path id="path76" d="M8.6315 10.3642L12.6156 8.91116C13.0671 8.74575 13.137 8.51074 12.7698 8.38827C12.4031 8.26579 11.7385 8.30149 11.287 8.46645L8.6315 9.42367V7.90152L8.78438 7.8491C8.78438 7.8491 9.55186 7.5707 10.6295 7.44822C11.7085 7.32846 13.0296 7.46404 14.0657 7.86717C15.2348 8.24545 15.366 8.80089 15.0696 9.18369C14.7718 9.56738 14.0449 9.84126 14.0449 9.84126L8.6315 11.8298V10.3642Z" fill="#7B7B7B"/>
<path id="path80" d="M1.14157 10.2092C-0.0575829 9.8635 -0.257737 9.14536 0.288378 8.73048C0.795171 8.34678 1.65411 8.05934 1.65411 8.05934L5.20475 6.76904V8.23967L2.64958 9.17564C2.19757 9.34105 2.12953 9.57606 2.49494 9.69764C2.86299 9.82147 3.52664 9.78622 3.97908 9.6199L5.20475 9.1657V10.4827C5.12654 10.4962 5.04039 10.5102 4.96085 10.5233C3.7343 10.7281 2.42822 10.6431 1.14157 10.2092Z" fill="#7B7B7B"/>
</g>
</g>
<defs>
<clipPath id="clip0_22_12">
<rect width="52" height="12" fill="white"/>
</clipPath>
</defs>
</svg>
