<svg width="28" height="28" viewBox="0 0 28 28" fill="none" xmlns="http://www.w3.org/2000/svg">
<path d="M14.0012 2.33325C20.4447 2.33325 25.6678 7.55642 25.6678 13.9999C25.6678 20.4434 20.4447 25.6666 14.0012 25.6666C11.9394 25.6699 9.91392 25.1243 8.13282 24.0858L2.33916 25.6666L3.91649 19.8706C2.8771 18.0889 2.33104 16.0626 2.33449 13.9999C2.33449 7.55642 7.55766 2.33325 14.0012 2.33325ZM10.0252 8.51659L9.79182 8.52592C9.64076 8.53512 9.49313 8.5748 9.35782 8.64259C9.23126 8.71425 9.11573 8.80385 9.01482 8.90859C8.87482 9.04042 8.79549 9.15475 8.71032 9.26558C8.2788 9.82664 8.04646 10.5155 8.04999 11.2233C8.05232 11.7949 8.20166 12.3514 8.43499 12.8718C8.91216 13.9241 9.69732 15.0383 10.7333 16.0708C10.983 16.3193 11.228 16.5689 11.4917 16.8011C12.7789 17.9345 14.313 18.7518 15.9717 19.1881L16.6343 19.2896C16.8502 19.3013 17.066 19.2849 17.283 19.2744C17.6228 19.2569 17.9545 19.1649 18.2548 19.0049C18.4076 18.9262 18.5567 18.8406 18.7017 18.7483C18.7017 18.7483 18.7518 18.7156 18.8475 18.6433C19.005 18.5266 19.1018 18.4438 19.2325 18.3073C19.3293 18.2069 19.4133 18.0891 19.4775 17.9549C19.5685 17.7648 19.6595 17.4019 19.6968 17.0998C19.7248 16.8688 19.7167 16.7428 19.7132 16.6646C19.7085 16.5398 19.6047 16.4103 19.4915 16.3554L18.8125 16.0509C18.8125 16.0509 17.7975 15.6088 17.1768 15.3264C17.1119 15.2981 17.0423 15.2818 16.9715 15.2786C16.8917 15.2704 16.811 15.2794 16.7349 15.3049C16.6589 15.3305 16.5892 15.372 16.5305 15.4268C16.5247 15.4244 16.4465 15.4909 15.603 16.5129C15.5546 16.578 15.4879 16.6271 15.4114 16.6542C15.335 16.6812 15.2522 16.6848 15.1737 16.6646C15.0977 16.6442 15.0232 16.6185 14.9508 16.5876C14.8062 16.5269 14.756 16.5036 14.6568 16.4616C13.9872 16.1694 13.3673 15.7746 12.8193 15.2914C12.6723 15.1631 12.5358 15.0231 12.3958 14.8878C11.9368 14.4482 11.5368 13.9509 11.2058 13.4084L11.137 13.2976C11.0875 13.2231 11.0476 13.1428 11.018 13.0584C10.9737 12.8869 11.0892 12.7493 11.0892 12.7493C11.0892 12.7493 11.3727 12.4389 11.5045 12.2709C11.6328 12.1076 11.7413 11.9489 11.8113 11.8358C11.949 11.6141 11.9922 11.3866 11.9198 11.2104C11.5932 10.4124 11.2548 9.61792 10.9072 8.82925C10.8383 8.67292 10.6342 8.56092 10.4487 8.53875C10.3857 8.53175 10.3227 8.52475 10.2597 8.52008C10.103 8.5123 9.94598 8.51386 9.78949 8.52475L10.024 8.51542L10.0252 8.51659Z" fill="#4671C6"/>
</svg>
