<svg width="22" height="18" viewBox="0 0 22 18" fill="none" xmlns="http://www.w3.org/2000/svg">
<g id="Xbox_Series_X 1" clip-path="url(#clip0_22_4)">
<path id="path2" d="M13.9448 0C13.5144 0 13.1086 0.0607835 12.7643 0.172346C12.4077 0.294047 12.1002 0.466458 11.842 0.699722C11.5715 0.932985 11.3747 1.21701 11.2394 1.52126C11.1042 1.82552 11.0427 2.18051 11.0427 2.55575C11.0427 2.931 11.1042 3.2859 11.2394 3.59016C11.3747 3.89442 11.5715 4.16826 11.842 4.40153C12.1125 4.63479 12.42 4.8072 12.7643 4.9289C13.1086 5.04046 13.5144 5.10133 13.9448 5.10133C14.3875 5.10133 14.781 5.0506 15.1253 4.9289C15.4697 4.81734 15.777 4.63479 16.0476 4.40153C16.3058 4.16826 16.5026 3.89442 16.6379 3.59016C16.7731 3.2859 16.8346 2.931 16.8346 2.55575C16.8346 2.17036 16.7608 1.82552 16.6379 1.52126C16.5149 1.21701 16.3058 0.932985 16.0476 0.699722C15.7893 0.46646 15.4697 0.283906 15.1253 0.172346C14.7687 0.0607835 14.3752 0 13.9448 0ZM0.184506 0.111564L2.2381 2.45428L0 4.99986H1.00835L2.75451 3.02226L4.48844 4.99986H5.49679L3.25868 2.45428L5.32462 0.111564H4.31627L2.75451 1.88638L1.19285 0.111564H0.184506ZM5.9764 0.111564V2.19063H5.20168L4.64827 2.8194H5.9764V4.99986H8.74314C9.38258 4.99986 9.87455 4.86805 10.2189 4.62465C10.5632 4.38124 10.7353 4.03646 10.7353 3.61051C10.7353 3.34682 10.6492 3.10339 10.4647 2.9107C10.2926 2.718 10.0467 2.5557 9.71469 2.45428C10.2312 2.22102 10.4894 1.85596 10.4894 1.38944C10.4894 1.01419 10.3295 0.699774 10.0098 0.466511C9.69007 0.233247 9.23509 0.111564 8.63254 0.111564H5.9764ZM16.6133 0.111564L18.6791 2.45428L16.4411 4.99986H17.4495L19.1833 3.02226L20.9295 4.99986H21.9378L19.6875 2.45428L21.7534 0.111564H20.7451L19.1833 1.88638L17.6216 0.111564H16.6133ZM13.9448 0.669288C14.5351 0.669288 15.0146 0.841724 15.3712 1.1764C15.7278 1.51108 15.9 1.97767 15.9 2.55575C15.9 3.13384 15.7278 3.59016 15.3712 3.92484C15.0146 4.25953 14.5351 4.43196 13.9448 4.43196C13.3423 4.43196 12.8749 4.25953 12.5183 3.92484C12.1617 3.59016 11.9773 3.13384 11.9773 2.55575C11.9773 1.97767 12.1617 1.52123 12.5183 1.1764C12.8749 0.841721 13.3546 0.669288 13.9448 0.669288ZM6.87404 0.750502H8.57107C8.90309 0.750502 9.16129 0.811316 9.33345 0.933018C9.5179 1.05472 9.60398 1.22716 9.60398 1.44013C9.60398 1.69368 9.51794 1.88633 9.34578 2.00803C9.17362 2.13987 8.91539 2.20072 8.57107 2.20072H6.87404V0.750502ZM6.87404 2.8194H8.70634C9.07525 2.8194 9.35806 2.88024 9.54252 3.01209C9.72697 3.13379 9.82529 3.33661 9.82529 3.59016C9.82529 3.83356 9.72694 4.0263 9.53018 4.15814C9.33343 4.27984 9.05062 4.35083 8.69401 4.35083H6.87404V2.8194ZM4.67875 6.36271C4.50066 6.36271 4.36157 6.41318 4.27253 6.50958C4.17235 6.60138 4.09437 6.75287 4.04428 6.95941L4.00531 7.11552C3.97191 7.24403 3.93301 7.33577 3.88849 7.38626C3.84396 7.43674 3.7772 7.45969 3.69372 7.45969C3.61024 7.45969 3.54348 7.43219 3.49896 7.37711C3.45443 7.32203 3.4321 7.24402 3.4321 7.14304C3.4321 7.00994 3.46548 6.9135 3.52114 6.85384C3.57679 6.79417 3.66592 6.75746 3.78836 6.75287H3.79386V6.42238H3.78836C3.57131 6.43158 3.39874 6.49582 3.2763 6.61515C3.15387 6.73449 3.09263 6.91349 3.09263 7.14757C3.09263 7.35412 3.14831 7.51942 3.25962 7.63417C3.37092 7.74892 3.52116 7.80857 3.70481 7.80857C3.8829 7.80857 4.02201 7.76261 4.13332 7.66623C4.23906 7.56984 4.31704 7.42304 4.36157 7.23486L4.40043 7.08337C4.43383 6.94567 4.47284 6.84927 4.51736 6.79878C4.56188 6.74829 4.62305 6.72073 4.70653 6.72073C4.8067 6.72073 4.88469 6.75288 4.93477 6.81254C4.98486 6.87221 5.01262 6.96401 5.01262 7.07876C5.01262 7.22104 4.97927 7.3312 4.91249 7.40463C4.8457 7.47348 4.73437 7.51483 4.58411 7.51483H4.57861V7.84986H4.58411C4.82342 7.84986 5.01266 7.78104 5.14623 7.64793C5.27423 7.51942 5.341 7.32658 5.341 7.0879C5.341 6.85841 5.28538 6.67941 5.16852 6.55548C5.05164 6.42697 4.89023 6.36271 4.67875 6.36271ZM6.62662 6.41785L16.3157 17.4152H19.1817L9.49266 6.41785H6.62662ZM15.9206 6.41785L14.1397 8.43733L15.5699 10.0622L18.7866 6.41785H15.9206ZM3.1316 8.53376V9.84643H5.29093V8.53376H4.91809V9.50678H4.36706V8.62558H4.0109V9.50678H3.50445V8.53376H3.1316ZM3.1316 10.6772V11.0168H5.29093V10.6772H3.1316ZM5.29093 11.7329C5.22415 11.7696 5.14064 11.788 5.0349 11.7926L4.71212 11.8063C4.58413 11.8109 4.48398 11.8293 4.41163 11.8706C4.33928 11.9073 4.28363 11.9716 4.25024 12.0588C4.16676 11.866 3.99419 11.7697 3.73819 11.7697C3.55454 11.7697 3.4043 11.8248 3.29299 11.9349C3.2763 11.9533 3.25963 11.9716 3.24293 11.9946C3.24849 11.99 3.25404 11.9808 3.25963 11.9762C3.18728 12.0634 3.14834 12.1782 3.13721 12.3158V12.2791C3.13166 12.3158 3.13163 12.3526 3.13163 12.3939V13.2017H5.29095V12.862H4.45063V12.426C4.45063 12.3296 4.47838 12.2562 4.52847 12.2149C4.57856 12.169 4.67318 12.146 4.80119 12.1415L5.03493 12.1322C5.14067 12.1322 5.22973 12.1184 5.29095 12.0863L5.29093 11.7329ZM3.78836 12.1184C3.89966 12.1184 3.98313 12.1414 4.03879 12.1965C4.09444 12.2516 4.12223 12.325 4.12223 12.4168V12.862H3.47107V12.426C3.47107 12.325 3.49897 12.2516 3.55462 12.1965C3.61027 12.146 3.68818 12.1184 3.78836 12.1184ZM9.84332 13.321L6.23149 17.4152H9.09753L11.2735 14.9458L9.84332 13.321ZM3.1316 13.9315V15.2488H5.29093V13.9361H4.91809V14.9091H4.36706V14.0278H4.0109V14.9091H3.50445V13.9315H3.1316ZM4.66766 15.9234C4.5007 15.9326 4.36151 15.9786 4.26133 16.0704C4.16116 16.1622 4.08328 16.3136 4.03319 16.5201L3.99422 16.6762C3.96082 16.8048 3.92192 16.8965 3.8774 16.947C3.83287 16.9975 3.76601 17.0205 3.68253 17.0205C3.59905 17.0205 3.53228 16.9929 3.48776 16.9378C3.44324 16.8828 3.42101 16.8047 3.42101 16.7038C3.42101 16.5707 3.44882 16.4742 3.51005 16.4146C3.5657 16.3549 3.66029 16.3228 3.77716 16.3136H3.78275V15.9831H3.77716C3.56012 15.9877 3.38765 16.0565 3.26521 16.1759C3.14278 16.2952 3.08154 16.4743 3.08154 16.7084C3.08154 16.9149 3.13722 17.0756 3.24853 17.1949C3.35983 17.3096 3.51007 17.3693 3.69372 17.3693C3.86624 17.3693 4.01092 17.3188 4.12223 17.227C4.23353 17.1307 4.30585 16.9884 4.35037 16.7956L4.38934 16.6441C4.42274 16.5064 4.46175 16.41 4.50627 16.3595C4.55079 16.309 4.61196 16.2815 4.69544 16.2815C4.79561 16.2815 4.87349 16.3136 4.92358 16.3733C4.97367 16.4329 5.00153 16.5247 5.00153 16.6395C5.00153 16.7818 4.96818 16.8919 4.9014 16.9654C4.83461 17.0388 4.72328 17.0756 4.57302 17.0756H4.56743V17.4106H4.57302C4.81789 17.4106 5.00714 17.3418 5.13514 17.2087C5.2687 17.0756 5.3299 16.8873 5.3299 16.6486C5.3299 16.4237 5.26863 16.2447 5.15732 16.1162C5.04045 15.9877 4.87357 15.9234 4.66766 15.9234Z" fill="#7B7B7B"/>
</g>
<defs>
<clipPath id="clip0_22_4">
<rect width="22" height="17.6" fill="white"/>
</clipPath>
</defs>
</svg>
